<svg xmlns="http://www.w3.org/2000/svg" xmlns:xlink="http://www.w3.org/1999/xlink" viewBox="0 0 553.34 539.59"><defs><style>.cls-1{fill:#fff;}.cls-2{fill:#231f20;}</style></defs><title>Monochrome Sinking Moon School of Kung Fu Logo</title><g id="Layer_2" data-name="Layer 2"><g id="Layer_7" data-name="Layer 7"><path d="M552.79,191.73,400.64.94a2.5,2.5,0,0,0-2-.94h-244a2.5,2.5,0,0,0-2,.94L.55,191.73a2.5,2.5,0,0,0-.48,2.11l54.3,237.91a2.5,2.5,0,0,0,1.35,1.7L275.58,539.34a2.5,2.5,0,0,0,2.17,0L497.62,433.46a2.5,2.5,0,0,0,1.35-1.7l54.3-237.91A2.5,2.5,0,0,0,552.79,191.73Z"/></g><g id="Layer_1-2" data-name="Layer 1"><path class="cls-1" d="M459.71,380.09a189.34,189.34,0,0,0,6-47.25c0-104.38-84.62-189-189-189s-189,84.62-189,189a189.34,189.34,0,0,0,6,47.25Z"/><ellipse class="cls-1" cx="276.67" cy="402.46" rx="173.25" ry="12.38"/><ellipse class="cls-1" cx="276.67" cy="437.34" rx="141.75" ry="13.5"/><ellipse class="cls-1" cx="276.67" cy="468.84" rx="63" ry="9"/></g><g id="Layer_8" data-name="Layer 8"><polygon class="cls-1" points="42.86 217.26 28.68 213.44 42.86 209.62 46.68 195.44 50.5 209.62 64.68 213.44 50.5 217.26 46.68 231.44 42.86 217.26"/><polygon class="cls-1" points="170.18 52.69 156 48.87 170.18 45.05 174 30.87 177.82 45.05 192 48.87 177.82 52.69 174 66.87 170.18 52.69"/><polygon class="cls-1" points="502.43 200.94 488.25 197.12 502.43 193.3 506.25 179.12 510.07 193.3 524.25 197.12 510.07 200.94 506.25 215.12 502.43 200.94"/><polygon class="cls-1" points="491.68 293.19 477.5 289.37 491.68 285.55 495.5 271.37 499.32 285.55 513.5 289.37 499.32 293.19 495.5 307.37 491.68 293.19"/><polygon class="cls-1" points="339.68 54.44 325.5 50.62 339.68 46.8 343.5 32.62 347.32 46.8 361.5 50.62 347.32 54.44 343.5 68.62 339.68 54.44"/><polygon class="cls-1" points="69.18 284.44 55 280.62 69.18 276.8 73 262.62 76.82 276.8 91 280.62 76.82 284.44 73 298.62 69.18 284.44"/><polygon class="cls-1" points="233.18 58.94 219 55.12 233.18 51.3 237 37.12 240.82 51.3 255 55.12 240.82 58.94 237 73.12 233.18 58.94"/><circle class="cls-1" cx="208" cy="35.37" r="4.5"/><circle class="cls-1" cx="219.5" cy="123.37" r="4.5"/><circle class="cls-1" cx="313.5" cy="30.87" r="4.5"/><circle class="cls-1" cx="297.25" cy="74.87" r="4.5"/><circle class="cls-1" cx="48.25" cy="259.62" r="4.5"/><circle class="cls-1" cx="489" cy="320.37" r="4.5"/><circle class="cls-1" cx="259.5" cy="105.37" r="4.5"/><circle class="cls-1" cx="75" cy="231.12" r="4.5" transform="translate(-161.21 174.13) rotate(-58.46)"/><circle class="cls-1" cx="386.5" cy="45.37" r="4.5"/><circle class="cls-1" cx="67" cy="328.87" r="4.5"/><circle class="cls-1" cx="293" cy="104.37" r="2.25"/><circle class="cls-1" cx="58.25" cy="306.62" r="2.25"/><circle class="cls-1" cx="93.75" cy="245.87" r="2.25"/><circle class="cls-1" cx="52.25" cy="179.37" r="2.25"/><circle class="cls-1" cx="146" cy="67.87" r="2.25"/><circle class="cls-1" cx="239.5" cy="127.62" r="2.25"/><circle class="cls-1" cx="189.5" cy="70.62" r="2.25"/><circle class="cls-1" cx="270" cy="122.87" r="2.25"/><circle class="cls-1" cx="289.08" cy="92.04" r="2.25"/><circle class="cls-1" cx="269.5" cy="67.12" r="2.25"/><circle class="cls-1" cx="280.33" cy="42.71" r="2.25"/><circle class="cls-1" cx="252.17" cy="29.37" r="2.25"/><circle class="cls-1" cx="368.5" cy="33.37" r="2.25"/><circle class="cls-1" cx="327.83" cy="79.21" r="2.25"/><circle class="cls-1" cx="502.5" cy="232.37" r="2.25"/><circle class="cls-1" cx="493.17" cy="342.71" r="2.25"/><circle class="cls-1" cx="511.83" cy="265.37" r="2.25"/><circle class="cls-1" cx="519" cy="231.37" r="4.5"/><circle class="cls-1" cx="497" cy="253.87" r="4.5"/></g><g id="kanji"><path d="M234.67,259.37c1.08-.14,2.2,0,3.29-.11a10.22,10.22,0,0,0,7.5-4.58,65.49,65.49,0,0,1,4.6-6.34c3.33-3.7,7.05-7.07,10.29-10.84,1.62-1.88,2.6-4.33,3.75-6.58.58-1.13.77-2.46,1.36-3.58.88-1.69,2.14-3.21,2.86-5,.47-1.13.25-2.55.38-4.37l7.32.48a9.32,9.32,0,0,1-.27,1.32A93.79,93.79,0,0,1,264.29,241c-1.41,2-2.87,3.89-4.25,5.87-1.85,2.68-3.59,5.45-5.49,8.1-1,1.45-2.31,2.74-3.44,4.13-.11.14,0,.44,0,.8l2-.74-.87,1.76c1.67-.69,3.51-1.09,4.91-2.1,2.44-1.76,4.56-4,6.91-5.84a9.06,9.06,0,0,1,1.53-.93c-1.24,1.81-3,4.14-5.48,7.22A93,93,0,0,0,270.55,247c3-3.88,5.93-7.81,8.51-11.95a74.47,74.47,0,0,0,8.68-20.9,4.79,4.79,0,0,1,1.85-2.79c4.5-2.56,9.13-4.91,14.1-7.54v25c-4.06-2.09-5.23-1.5-5.4,2.23l-2.61-.49c.45.79.17,1.13.43,1.59l-1,.4c1.12,2.74,2.18,5.34,3.22,7.94.1.26.13.75,0,.88-1.55,1.31-.7,2.81-.47,4.31a6.85,6.85,0,0,1,0,3c-1.49,4.79,1.51,6.84,5.32,7.77,5.07,1.23,13.47-5.41,12.78-10.84a50,50,0,0,1,.66-14.09,57,57,0,0,0,.13-6.57c0-1.26.32-2.5.4-3.76.1-1.74.15-3.49.17-5.23.05-5.69.28-11.4,0-17.08-.13-2.89.87-5.7-.17-8.75-.59-1.74.76-4.18,1.36-6.27s-1-4.39-3.15-4c-3.83.74-7.7,1.48-11.19,3.39-3,1.63-6,3.21-9,4.84l4.57-18c-1.14-1-2.38-1.66-3-2.69-1.34-2.27-3.7-2.75-5.77-3.67-3.64-1.61-6,1.43-9.12,2.49.78,2.15-.11,2.6-1.58,3.83-2,1.71-2.44,3.48-1.19,5.83.73,1.38,1.28,2.85,2,4.22.39.72.32,2.21,1.07,2.42,2.92.79,4.12,1.67,3.1,5.67-.31,1.21-.61,2.42-1,3.6-.23.63-.56,1.47-1.08,1.72-4.08,1.91-8.05,4.15-12.36,5.45-2.11.64-2.57.28-2.42-1.78,2.06.51,2.85.14,1.53-1.88a3.35,3.35,0,0,1-.25-1.71c2.49-.57.28-2.43,1-3.43l1.61.35c-2.14-3.69,1.48-1.81,2.38-3l-.89-1.49c-3.42-5.79-6-7.4-12.58-5.87s-12.59,4.45-18.47,7.74a61.14,61.14,0,0,1-10.36,4.86c-3,1-5.83,1.87-8.4,3.89-2.4,1.89-3.8,3.79-3,7l2.07-.37c-.19.13-.28,1.25-.47,1.38,2.31,3.59,4.52,6.18,6.84,9.77,2.75,4.27,8.53,4.37,12.17,2.3,1.17-.67,2.26-1.48,4-2.6-.17,3.85-.43,7.1-.43,10.34,0,4.92-2.43,8.13-6.67,10.23a17.85,17.85,0,0,1-2.2,1.32c-1.5.47-3.12,1.17-4.59,1a17.14,17.14,0,0,1-6.37-2.59c-.94.65-3.44,2.66-4.38,3.26-3.67,2.34-3.48,3.9-1.87,7.82a19.7,19.7,0,0,0,2.66,4.36,57.81,57.81,0,0,0,4.65,5.43C228.59,257.62,231,259.84,234.67,259.37ZM257.24,210c.07-1,.8-2,.68-2.87-.4-3.07,1-4.65,3.82-5.38,1.77-.46,3.5-1.09,5.85-1.84l-3.67,3.47c.28.66.1,2.2.31,2.68-1,1.93-1.77,2.77-2.26,4.66-.87,3.37,1.77,4.75,4.15,6.19a7,7,0,0,1,1.6,1.05,5.64,5.64,0,0,0-1.77.33c-1.34.61-2.65,1.3-3.93,2-1.73,1-3.43,2-5.63,3.31C256.68,218.63,256.91,214.29,257.24,210Z"/><path d="M327.32,349.62h8.1c-4.76-2.56-9.6-4.66-14.37-6.9-7.24-3.4-14.45-6.89-21.65-10.39-2.32-1.13-4.61-2.33-6.82-3.65-4.67-2.8-9.23-5.8-14-8.52-1.44-.83-3.35-1.6-4.86-1.34-2.42.42-3-1.44-5.05-2.73,2.58-1,3.93-1.08,6.25-2,.89-.35,1.73-.84,2.63-1.15,2.39-.81,5-1.15,7.15-2.41,4.39-2.65,8.72-4.08,13.7-1.85,1.6.71,3.36.77,4.51-.7a70.51,70.51,0,0,0,4.25-6.39,1.82,1.82,0,0,0,.13-1.55,51.27,51.27,0,0,0-3-4.58,23.33,23.33,0,0,0-2-2.21c-1.06-.4-1.94-.66-2.75-1.06-1.88-.91-3.71-2-5.62-2.8a2.84,2.84,0,0,0-2.05.09c-2.29,1-4.41,2.55-6.78,3.2-4.88,1.33-14.22,3.19-15.57,3.53a28.94,28.94,0,0,1,1.35-5.62c4.72-2.81,10.44-3.81,14.45-6.38.35-.23,1.09,0,1.6.18,1.65.58,2.58-.06,3.38-1.54,1.08-2,1.87-4.16,4.06-5.52.7-.43,1-3,.47-3.68-3.53-4.1-7.58-7.4-13.63-6.25a50.66,50.66,0,0,1-5.14.43,29.82,29.82,0,0,0,1.15-2.83,8,8,0,0,0,.33-2.4,34.67,34.67,0,0,1,.33-5.57c-3.71-2.29-10.27-.23-11.39,4a39.18,39.18,0,0,0-1.17,7.28c-.1,1.42.18,1.46-1.9,2.18-3.83,1.32-7.69,2.52-11.55,3.75a17.17,17.17,0,0,1-2.27.43,39.83,39.83,0,0,0-6.34,1.21c-.78.27-1.17,1.79-1.63,2.78-.21.46,0,1.12-.29,1.55-1,1.75-.36,3.08.86,4.4a20.74,20.74,0,0,1,1.75,2.49c3.93,5.77,9.31,8.51,16.32,7.88.58-.05,1.36-.59,2.19-.72a21.26,21.26,0,0,1-1.12,4.25,3.44,3.44,0,0,1-2.08,1.45c-.89.24-2.32.58-3.21.82-1.57.42-2.66.58-4.24.89-2.71.53-7.22,1.25-8.17.87-2.63-.62-4.67-1.33-7.15.42-2.2,1.56-4.56,6.65-3.4,9,2.47,5,5.92,8.85,11.89,9.4a31.33,31.33,0,0,0,10-.23c-6.93,16-17.17,30.35-32.83,39.24a14.86,14.86,0,0,0,4.12-.53c3.89-1.16,8-2.31,11.53-4.23a34.06,34.06,0,0,0,9-7.22c2.94-3.29,5.3-7.11,7.84-10.74a62.31,62.31,0,0,0,9.28-18.72c.29-1,2-1.65,3.06-2.46.2.23,0,1,.23,1.18A11.66,11.66,0,0,1,265,320c-1.37,1-1.2,2.15-.58,3.28A36,36,0,0,0,268,329c4.24,5.13,8.53,10.22,13,15.13a42.13,42.13,0,0,0,14.27,10.7c6.48,2.82,11.5,3.12,20,2.68.29,0,.59-.22.89-.26,4.51-.71,8.35-4.17,13.29-3.28l-3.37-1.3c1.35-2.65,3.77.41,5.37-1.07l-4.22-1.47Z"/></g><g id="Layer_6" data-name="Layer 6"><path class="cls-1" d="M473.85,203.85c.76-3.43.14-11.2-5.24-15.59s-3.74-8.37-3-12.84-2.57-11.59-8.72-12.95c-5.14-1.14-8-6.26-7.19-10.25s5.54-4.69,10.11-2.63c-1.65-6.84-7-9.37-13-9.84s-12.05-6.61-9.61-10.14c2.18-3.15,5.63-1.07,8.57.65s6.69,2.44,13.42,1.89c-6.59-3.8-10.09-9.32-12.53-12-7-7.67-13-.5-14.27-5.4-1.14-4.41,3.66-5,7-3.55,2.92,1.24,5.44-.62,7.49-1,1.74-.32,3.16,1,4.29,3.49s5.52,5.78,9.89,7.27,4.48.42,11.23,2.24c-5.06-5.83-4.78-9.89-8.61-13.08s-8.63-3.67-12.09-4.43c-4.76-1-6.71-4.82-9.16-7.45-1.93-2.07-5.44-1.81-8.78-3.13s-5.31-5.41-1-8.39,7.52-1.2,12.46-3c6.49-2.34,6-3.62,6.45-8.76-3.94-1.6-4.76-3-10.64-1.45-5.57,1.46-10.94,3.8-12.9,1.62s3.26-5,8.64-5a30.47,30.47,0,0,0,8.83-1.57s-6.95-9.61-8.75-11.47c-4.5.59-9-1-15.38-2.76-6-1.66-12.09-.25-15.59,4.58a15.64,15.64,0,0,1-13.38,6.88c-7.38,0-15.27,4.84-14.61,10.39.71,5.95,8.35,5,13.13,5.36,7.91.66,19.42,7.88,16.74,17.69-1.59,5.82-6.81,6.29-9,7-3,1-5.81,4.25-7.53,7.19s-5.68,4.67-9.83,3.74c-3.67-.82-3.68-4.47-1-5.31s6.9-1.67,9-5S393.07,94,399.53,95.08c-6.8-6.33-11.82-1.27-14.33.86s-6.91,2.47-10,1.87a9.27,9.27,0,0,0-8.74,3c-2.59,2.69-10.45,5.12-11.09.42s6.54-3.22,9.78-6.58c2.84-2.94,3.46-7.88,8.1-8.3-8.31-5.84-14.47-3.94-19,.08-3.88,3.48-5.07,7.2-9.78,6.58s-9.25,2.5-11.94,8.48a11.57,11.57,0,0,0-1.39-3.32,11.75,11.75,0,0,1-2.17-5c-.17-1.67,0-3.83,5.33-6-2.67-.5-7.81.48-10.58,3.5-3.6,3.93-3.42,9.31-1.83,13.69a20.78,20.78,0,0,0-3.63,2.2c-3.31,2.52-6.37,5.42-7.59,10.53-6.81,1.11-20.27,6.62-22.78,8.75,6.85.47,19.13-.64,23.36.14,4.51,5.43,10.72,8.21,15.64,8.11s7.22-.48,10-1.5c5.2-1.91,7.7-4.63,11.25-4.5,6.75.25,12.87,5.35,15.25,16.5a13.85,13.85,0,0,0,11.46,10.74,13.86,13.86,0,0,0,2.15,3.84c3.49,4.42,7.86,4.09,12.88,7-2.23-4.71-2-7.57-3-10.51,4.67,1.33,6.62,5.7,8.29,10.91s5.24,6.61,8.66,7.17a16.77,16.77,0,0,0,3.18,7.35c3.52,4.4,7.88,4,12.92,6.89,0-2.5-3.42-5.87-3.42-8.62a13,13,0,0,0,4.75,4.25c2.11,1,4.69-.59,5,3.82s1.09,8.77,5.14,12.31c4.53,4,7.62,6.35,11.25,13.09-1-6.57.55-13.26-1.14-18.56s-5.28-6.55-6.92-9.21,1.21-3.21,1.5-6.73c.27-3.35-3-7.53-.35-8.1,2.86-.62,5.69,5.47,6.21,8.76s2.44,9.31,7.46,10.89,8.93,2.19,10.21,8.69,4,9.13,7.19,10.45c3.42,1.44,5.75,5.33,9.53,10.3C474.56,212.52,473.09,207.28,473.85,203.85ZM326.48,118.3c-3.87,1.35-5.75-2-9.56-1.71,2.75-7.25,10-7.79,12.58-4.83C329.63,115.5,328.37,117.64,326.48,118.3Z"/><path class="cls-1" d="M450,199.69c-1.18,6.79-4,10.65-3,16.68,1,6.24,5.49,8.3,8.85,13.86.5-7.77,3.41-10,3-15.67C458.49,208.25,452.85,206,450,199.69Z"/><path class="cls-1" d="M464.72,224.37c-2,8.76-5.86,13.6-5,21.51.91,8.19,6.59,11.17,10.59,18.64,1.18-10.07,5.11-12.78,5-20.18C475.21,236.09,468,232.79,464.72,224.37Z"/><path class="cls-1" d="M465,144.37c2,5.8,1.49,10,4.84,14.28,3.48,4.43,7.84,4.12,12.85,7-2.94-6.27-1.63-9.26-4.36-13.52C475.35,147.4,470,148.08,465,144.37Z"/><path class="cls-1" d="M463.66,126.73c2.9,4.74,3.27,8.56,7.08,11.69s7.74,2.11,12.74,3.69c-3.83-5-3.25-7.87-6.5-11.11C473.37,127.4,468.76,129,463.66,126.73Z"/><path class="cls-1" d="M348.79,130.34c1.88,4.63-.1,7,1.54,10.58,2,4.42,8.17,4.75,13,8.54-2.37-2.5-2.25-8.38-4.62-12.37C356.11,132.78,352.11,130.09,348.79,130.34Z"/><path class="cls-1" d="M465.53,96.86c-4.82-3-5.94-6.47-10.35-8-4.57-1.64-7.67.57-13.12,1.41,5.88,2.75,5.46,5.43,9.42,7.32C455.87,99.64,459.78,97.24,465.53,96.86Z"/><path class="cls-1" d="M236.79,85.11c-.46-2.5-2.46-6.07-5-6.86-3.07-1-6.78-.6-10-.8-6.37-.39-12.56-2.51-18.36,1.29-3,2-4.43,6.3-7.6,7.8-2.09,1-5,.83-7.23.71-7.33-.39-13-3.6-19.35-6.78-8.36-4.18-19.07-7.22-28.36-4.84C129.6,78.54,123.32,93,128.09,103.52c3.29,7.29,10.91,11.71,18,14.55,7.72,3.09,15.55,3.83,23.6,5.45h0c3.86.78,9,2.56,9.77,7.07a8.5,8.5,0,0,1-2.81,7.29c-2.09,1.79-5.33,2.57-7.83,1.22a8.93,8.93,0,0,1-3.7-4.71c-1.31-3.25-2.12-6.68-3.47-9.92-14.38-2.39-36.06-9.42-37.17-26.84-12.41-1.4-25.3,4.7-33.87,13.41-9.35,9.5-16.16,26.32-8.64,38.78a166.79,166.79,0,0,1,24.19-7.93c-1.32-2.06-1-4.93,1.09-7.26-5.22-1-10.72-.8-15.86-2.06-3.64-.89-4.66-3.3-1.1-5.24,7.39-4,19.13-5.2,26.73-1.23a17.59,17.59,0,0,1,16.49-.34c3.36,1.81,5.52,5.37,7.33,8.6,4.31,7.71,7.23,17.12,14.68,22.5,17.38,12.53,42.13-4.84,43.24-24.27.48-8.47-3.23-17.1-10.75-21.45-9.36-5.42-19.82-5.83-30.09-8.12-3.74-.83-10.71-1.75-11.34-6.49-.49-3.65,2.45-6.2,5.9-5.91,4.12.35,8.19,2.4,11.92,4a138.67,138.67,0,0,0,13.82,5.61,41.92,41.92,0,0,0,18.49,1.35c1.06-.15,2.18-.5,3.25-.55,1.5-.07,2.18.42,3.63,1a19.74,19.74,0,0,0,9.94,1.28A28.77,28.77,0,0,0,229.27,96a45.55,45.55,0,0,0,5-5.89C235.3,88.67,237.14,87.06,236.79,85.11Zm-39.26,5.35c-7,1.69-15.08.26-21.48-2.71-7.38-3.42-14.06-8.05-22.37-8.9-7.11-.73-14.85,1-18.44,7.73-3.34,6.31-2.24,15.21,3.63,19.68-6.2-4.33-7.35-13.46-4.08-19.91,3.67-7.25,12-9,19.48-8.12,8.34.94,15.08,5.78,22.48,9.26a36.29,36.29,0,0,0,10.87,3.05c3.25.42,8.24,1.08,11.26-.54A5.22,5.22,0,0,1,197.53,90.46Zm32.07-.91c-.86.21-.74,1.49-.92,2.12a3.11,3.11,0,0,1-2.19,2.41c-.82.23-4.49-.23-4.77-1,0-.09.69-1.64.73-1.74.38-1.16.47-2.19,1.7-2.74,2.27-1,6.51,0,6.55.37S229.76,89.52,229.6,89.56Z"/><path class="cls-1" d="M136.82,176.74c-2-12.49-13.84-18.82-21.52-23.14-6.52,4.89-13.75,8.43-20.63,12.77a97.13,97.13,0,0,0,12.44,8.06c2.83,1.6,6.15,3.48,6.51,7.06.71,7.05-6.21,11.6-14.22,12.7-5.54.76-9.32-.25-13.49-3.91h0c-3.6-3.17-6.18-8.12-4.91-13,1.52-5.83,5.9-9.17,12.54-13.39s13.39-7,19.79-11.71h0c4.11-3,10.72-7.51,10.13-14.68A12.47,12.47,0,0,0,114.58,127h0a30.39,30.39,0,0,0-9.24-1.07c-5,.05-15.17,2.32-15.12,4s10.5,1.38,16,2.26c3.92.63,8.34,1.81,7.92,6.38-.39,4.2-5.89,5.32-10.72,6.73-8.1,2.37-15.17,4.36-21.33,7.23C73,156.74,64.3,163.85,61.71,174c-2.45,9.58,1.31,19.74,7.52,27.08,15,17.73,41.15,16.79,57.23.62C132.67,195.44,138.28,185.9,136.82,176.74ZM117,202.12a37.67,37.67,0,0,1-15.94,5.09,42.82,42.82,0,0,1-8.4,0,33.58,33.58,0,0,1-4.14-.71,18.75,18.75,0,0,1-4-1.37,26.37,26.37,0,0,0,8.12,1.76,43.09,43.09,0,0,0,8.31-.15,43.57,43.57,0,0,0,8.11-1.72,34.76,34.76,0,0,0,7.52-3.43,33.73,33.73,0,0,0,11.62-11.58,31.26,31.26,0,0,0,3.32-7.48c.62-2.23,1.49-6.88.4-9.48a10.78,10.78,0,0,1,.78,5.13,23.81,23.81,0,0,1-.59,4.18,31.46,31.46,0,0,1-3.43,7.92A33.59,33.59,0,0,1,117,202.12Z"/><path class="cls-2" d="M126.32,102.33a29.08,29.08,0,0,0-13.57.29,26.61,26.61,0,0,0-12,6.59,26.86,26.86,0,0,1,11.82-7.07,29.83,29.83,0,0,1,13.9-.79Z"/><path class="cls-2" d="M109.52,188.62a21.3,21.3,0,0,0,4.43-4.87,17.8,17.8,0,0,0,2.6-6.07,14.06,14.06,0,0,0-.16-6.6,18.49,18.49,0,0,0-3-6,18.62,18.62,0,0,1,3.21,5.92,14.44,14.44,0,0,1,.41,6.77,18.42,18.42,0,0,1-2.46,6.37,22.16,22.16,0,0,1-4.43,5.25.5.5,0,1,1-.65-.76h0Z"/><path class="cls-2" d="M176.35,125.89a8.36,8.36,0,0,1,4.29,8.89,10.84,10.84,0,0,1-6.11,8.2,10.12,10.12,0,0,1-10-1.38,11.74,11.74,0,0,1-3.17-4.09,20.28,20.28,0,0,1-1.57-4.91,0,0,0,0,1,.07,0,20.12,20.12,0,0,0,1.72,4.81,11.71,11.71,0,0,0,3.2,3.88,9.54,9.54,0,0,0,9.47,1.07,10.87,10.87,0,0,0,5.72-7.67,8.61,8.61,0,0,0-.46-4.88,9,9,0,0,0-3.2-3.83,0,0,0,0,1,0-.05A0,0,0,0,1,176.35,125.89Z"/><path class="cls-2" d="M407.19,163.26a14.1,14.1,0,0,0,3,3.56,11.37,11.37,0,0,0,4,2.27c1.46.49,3,.82,4.51,1.19a27.21,27.21,0,0,1,4.54,1.52l-.64.71a25.11,25.11,0,0,1-2-4.24c-.52-1.48-.9-3-1.29-4.45a13.15,13.15,0,0,0-1.85-4.09,9.16,9.16,0,0,0-3.28-3.09,8.76,8.76,0,0,1,3.67,2.8A13.56,13.56,0,0,1,420,163.6c.51,1.47.89,2.95,1.45,4.35a25.53,25.53,0,0,0,2,4.06l.82,1.38-1.46-.67a27.58,27.58,0,0,0-4.37-1.51,40.29,40.29,0,0,1-4.55-1.39,11.92,11.92,0,0,1-4-2.63A12.89,12.89,0,0,1,407.19,163.26Z"/><path class="cls-2" d="M428.06,154.2a14.1,14.1,0,0,0,3.21,3.37,11.37,11.37,0,0,0,4.09,2c1.48.39,3,.63,4.58.9a27.21,27.21,0,0,1,4.63,1.23l-.59.75a25.11,25.11,0,0,1-2.27-4.1c-.62-1.44-1.09-2.92-1.57-4.35a13.14,13.14,0,0,0-2.1-4,9.16,9.16,0,0,0-3.47-2.87,8.76,8.76,0,0,1,3.85,2.56,13.55,13.55,0,0,1,2.44,4c.61,1.44,1.08,2.88,1.72,4.25a25.54,25.54,0,0,0,2.23,3.92l.91,1.32-1.5-.58a27.58,27.58,0,0,0-4.46-1.23,40.29,40.29,0,0,1-4.63-1.09,11.92,11.92,0,0,1-4.18-2.37A12.89,12.89,0,0,1,428.06,154.2Z"/><path class="cls-2" d="M414.83,125.1a11.75,11.75,0,0,0,3.56,1.83,8.71,8.71,0,0,0,3.88.38c1.3-.16,2.6-.5,3.94-.79a21.18,21.18,0,0,1,4.12-.53l-.3.9A22.28,22.28,0,0,1,427,124c-.92-1-1.75-2.17-2.55-3.25a11.63,11.63,0,0,0-2.85-2.79,7.29,7.29,0,0,0-3.74-1.4,7,7,0,0,1,4,1,12.15,12.15,0,0,1,3.19,2.71c.92,1,1.73,2.13,2.66,3.09a22.45,22.45,0,0,0,3,2.68l1.18.89h-1.48a21.48,21.48,0,0,0-3.94.46,29.85,29.85,0,0,1-4.07.63,9.22,9.22,0,0,1-4.11-.68A10.66,10.66,0,0,1,414.83,125.1Z"/><path class="cls-1" d="M397.48,5H155.86L5.21,193.91,59,429.48l217.7,104.84,217.7-104.84,53.77-235.57Zm90.4,419.85L276.67,526.57,65.46,424.85,13.29,196.3,159.45,13H393.88L540,196.3Z"/></g></g></svg>
