<svg width="214" height="216" viewBox="0 0 214 216" fill="none" xmlns="http://www.w3.org/2000/svg">
<path d="M212.54 82.3734L154.314 9.35989C154.222 9.24529 154.105 9.15324 153.973 9.09087C153.84 9.02849 153.695 8.99746 153.548 9.00016H60.1716C60.025 8.99746 59.8797 9.02849 59.747 9.09087C59.6143 9.15324 59.4977 9.24529 59.4062 9.35989L1.20281 82.3734C1.11366 82.4857 1.05087 82.6165 1.01907 82.7563C0.987279 82.896 0.987295 83.0412 1.01912 83.1809L21.7992 174.227C21.8309 174.367 21.8938 174.499 21.9832 174.611C22.0727 174.724 22.1864 174.815 22.3159 174.877L106.454 215.401C106.584 215.463 106.726 215.495 106.869 215.495C107.013 215.495 107.155 215.463 107.285 215.401L191.427 174.881C191.556 174.819 191.67 174.728 191.759 174.615C191.849 174.502 191.912 174.371 191.943 174.231L212.724 83.1847C212.756 83.0444 212.756 82.8986 212.725 82.7581C212.693 82.6176 212.63 82.4861 212.54 82.3734Z" fill="black"/>
<mask id="mask0_2_3" style="mask-type:alpha" maskUnits="userSpaceOnUse" x="3" y="11" width="208" height="203">
<path d="M106.872 213.483L190.017 173.382L210.552 83.276L153.014 11.0165H60.7294L3.19096 83.276L23.7262 173.382L106.872 213.483Z" fill="white"/>
</mask>
<g mask="url(#mask0_2_3)">
<path d="M153.118 10.9673H60.6523L2.99999 83.2423L23.5849 173.408L106.897 213.529L190.208 173.408L210.77 83.2423L153.118 10.9673ZM187.713 171.644L106.885 210.563L26.0571 171.644L6.09213 84.176L62.0262 14.0365H151.74L207.659 84.176L187.713 171.644Z" fill="#FFCE07"/>
<g opacity="0.6">
<path opacity="0.6" d="M61.8539 14.2431L62.0223 14.0327H151.419C152.211 13.0645 153.401 12.3106 153.099 10.9711H60.6523L60.5413 11.1089C60.8513 12.169 60.924 13.4931 61.8539 14.2431Z" fill="url(#paint0_linear_2_3)"/>
<path opacity="0.6" d="M210.751 83.3418V83.2614L153.118 10.9673C153.42 12.3182 152.23 13.0683 151.438 14.0288H151.756L207.659 84.176L207.602 84.4286C208.838 84.6659 209.814 84.1684 210.751 83.3418Z" fill="url(#paint1_linear_2_3)"/>
<path opacity="0.6" d="M6.09212 84.1769L61.854 14.244C60.9164 13.4787 60.8437 12.1698 60.5337 11.1021L2.99998 83.2431L3.06886 83.5416C4.06192 83.8459 5.07815 84.0686 6.10742 84.2075L6.09212 84.1769Z" fill="url(#paint2_linear_2_3)"/>
<path opacity="0.6" d="M26.0571 171.644L6.10357 84.222C5.07429 84.083 4.05806 83.8603 3.065 83.5561L23.5849 173.408L23.8068 173.515C24.504 172.816 25.2737 172.194 26.103 171.659L26.0571 171.644Z" fill="url(#paint3_linear_2_3)"/>
<path opacity="0.6" d="M26.103 171.644C25.2738 172.179 24.504 172.801 23.8069 173.5L106.79 213.483V210.517L26.103 171.644Z" fill="url(#paint4_linear_2_3)"/>
<path opacity="0.6" d="M189.833 173.584C188.781 173.423 188.303 172.402 187.629 171.671L106.881 210.556L106.786 210.51V213.476L106.881 213.522L189.833 173.584Z" fill="url(#paint5_linear_2_3)"/>
<path opacity="0.6" d="M210.751 83.3418C209.814 84.1684 208.838 84.6659 207.617 84.4286L187.713 171.644L187.629 171.682C188.306 172.405 188.777 173.423 189.833 173.596L190.193 173.423L210.751 83.3418Z" fill="url(#paint6_linear_2_3)"/>
</g>
</g>
<defs>
<linearGradient id="paint0_linear_2_3" x1="106.847" y1="10.9176" x2="106.847" y2="14.5646" gradientUnits="userSpaceOnUse">
<stop stop-color="#FFD13D"/>
<stop offset="0.02" stop-color="#FFD242"/>
<stop offset="0.05" stop-color="#FFD54F"/>
<stop offset="0.08" stop-color="#FFDB65"/>
<stop offset="0.11" stop-color="#FFE285"/>
<stop offset="0.14" stop-color="#FFECAD"/>
<stop offset="0.17" stop-color="#FFF7DD"/>
<stop offset="0.19" stop-color="white"/>
<stop offset="0.22" stop-color="#FFFEFA"/>
<stop offset="0.25" stop-color="#FFFAEC"/>
<stop offset="0.28" stop-color="#FEF3D4"/>
<stop offset="0.31" stop-color="#FDEAB3"/>
<stop offset="0.35" stop-color="#FCDF88"/>
<stop offset="0.38" stop-color="#FBD154"/>
<stop offset="0.42" stop-color="#FABF13"/>
<stop offset="0.45" stop-color="#F9BD13"/>
<stop offset="0.46" stop-color="#F4B514"/>
<stop offset="0.48" stop-color="#ECA816"/>
<stop offset="0.49" stop-color="#D37E1B"/>
<stop offset="0.5" stop-color="#C1601E"/>
<stop offset="0.63" stop-color="#CA761C"/>
<stop offset="0.87" stop-color="#D99918"/>
<stop offset="1" stop-color="#DFA617"/>
</linearGradient>
<linearGradient id="paint1_linear_2_3" x1="182.49" y1="46.7068" x2="179.286" y2="49.29" gradientUnits="userSpaceOnUse">
<stop stop-color="#FFD13D"/>
<stop offset="0.02" stop-color="#FFD242"/>
<stop offset="0.05" stop-color="#FFD54F"/>
<stop offset="0.08" stop-color="#FFDB65"/>
<stop offset="0.11" stop-color="#FFE285"/>
<stop offset="0.14" stop-color="#FFECAD"/>
<stop offset="0.17" stop-color="#FFF7DD"/>
<stop offset="0.19" stop-color="white"/>
<stop offset="0.22" stop-color="#FFFEFA"/>
<stop offset="0.25" stop-color="#FFFAEC"/>
<stop offset="0.28" stop-color="#FEF3D4"/>
<stop offset="0.31" stop-color="#FDEAB3"/>
<stop offset="0.35" stop-color="#FCDF88"/>
<stop offset="0.38" stop-color="#FBD154"/>
<stop offset="0.42" stop-color="#FABF13"/>
<stop offset="0.45" stop-color="#F9BD13"/>
<stop offset="0.47" stop-color="#F4B514"/>
<stop offset="0.48" stop-color="#ECA816"/>
<stop offset="0.49" stop-color="#E19618"/>
<stop offset="0.5" stop-color="#D37E1B"/>
<stop offset="0.51" stop-color="#C1601E"/>
<stop offset="0.64" stop-color="#CA761C"/>
<stop offset="0.87" stop-color="#D99918"/>
<stop offset="1" stop-color="#DFA617"/>
</linearGradient>
<linearGradient id="paint2_linear_2_3" x1="4628.33" y1="7223.68" x2="5241.84" y2="7617.16" gradientUnits="userSpaceOnUse">
<stop stop-color="#FFD13D"/>
<stop offset="0.02" stop-color="#FFD242"/>
<stop offset="0.05" stop-color="#FFD54F"/>
<stop offset="0.08" stop-color="#FFDB65"/>
<stop offset="0.11" stop-color="#FFE285"/>
<stop offset="0.14" stop-color="#FFECAD"/>
<stop offset="0.17" stop-color="#FFF7DD"/>
<stop offset="0.19" stop-color="white"/>
<stop offset="0.22" stop-color="#FFFEFA"/>
<stop offset="0.25" stop-color="#FFFAEC"/>
<stop offset="0.28" stop-color="#FEF3D4"/>
<stop offset="0.31" stop-color="#FDEAB3"/>
<stop offset="0.35" stop-color="#FCDF88"/>
<stop offset="0.38" stop-color="#FBD154"/>
<stop offset="0.42" stop-color="#FABF13"/>
<stop offset="0.45" stop-color="#F9BD13"/>
<stop offset="0.46" stop-color="#F4B514"/>
<stop offset="0.48" stop-color="#ECA816"/>
<stop offset="0.49" stop-color="#D37E1B"/>
<stop offset="0.5" stop-color="#C1601E"/>
<stop offset="0.63" stop-color="#CA761C"/>
<stop offset="0.87" stop-color="#D99918"/>
<stop offset="1" stop-color="#DFA617"/>
</linearGradient>
<linearGradient id="paint3_linear_2_3" x1="1182.38" y1="27792.8" x2="452.484" y2="27836.1" gradientUnits="userSpaceOnUse">
<stop stop-color="#FFD13D"/>
<stop offset="0.02" stop-color="#FFD242"/>
<stop offset="0.05" stop-color="#FFD54F"/>
<stop offset="0.08" stop-color="#FFDB65"/>
<stop offset="0.11" stop-color="#FFE285"/>
<stop offset="0.14" stop-color="#FFECAD"/>
<stop offset="0.17" stop-color="#FFF7DD"/>
<stop offset="0.19" stop-color="white"/>
<stop offset="0.22" stop-color="#FFFEFA"/>
<stop offset="0.25" stop-color="#FFFAEC"/>
<stop offset="0.28" stop-color="#FEF3D4"/>
<stop offset="0.31" stop-color="#FDEAB3"/>
<stop offset="0.35" stop-color="#FCDF88"/>
<stop offset="0.38" stop-color="#FBD154"/>
<stop offset="0.42" stop-color="#FABF13"/>
<stop offset="0.45" stop-color="#F9BD13"/>
<stop offset="0.46" stop-color="#F4B514"/>
<stop offset="0.48" stop-color="#ECA816"/>
<stop offset="0.49" stop-color="#D37E1B"/>
<stop offset="0.5" stop-color="#C1601E"/>
<stop offset="0.63" stop-color="#CA761C"/>
<stop offset="0.87" stop-color="#D99918"/>
<stop offset="1" stop-color="#DFA617"/>
</linearGradient>
<linearGradient id="paint4_linear_2_3" x1="14315.9" y1="19975.6" x2="14197.3" y2="20462.7" gradientUnits="userSpaceOnUse">
<stop stop-color="#FFD13D"/>
<stop offset="0.02" stop-color="#FFD242"/>
<stop offset="0.05" stop-color="#FFD54F"/>
<stop offset="0.08" stop-color="#FFDB65"/>
<stop offset="0.11" stop-color="#FFE285"/>
<stop offset="0.14" stop-color="#FFECAD"/>
<stop offset="0.17" stop-color="#FFF7DD"/>
<stop offset="0.19" stop-color="white"/>
<stop offset="0.22" stop-color="#FFFEFA"/>
<stop offset="0.25" stop-color="#FFFAEC"/>
<stop offset="0.28" stop-color="#FEF3D4"/>
<stop offset="0.31" stop-color="#FDEAB3"/>
<stop offset="0.35" stop-color="#FCDF88"/>
<stop offset="0.38" stop-color="#FBD154"/>
<stop offset="0.42" stop-color="#FABF13"/>
<stop offset="0.45" stop-color="#F9BD13"/>
<stop offset="0.46" stop-color="#F4B514"/>
<stop offset="0.48" stop-color="#ECA816"/>
<stop offset="0.49" stop-color="#D37E1B"/>
<stop offset="0.5" stop-color="#C1601E"/>
<stop offset="0.63" stop-color="#CA761C"/>
<stop offset="0.87" stop-color="#D99918"/>
<stop offset="1" stop-color="#DFA617"/>
</linearGradient>
<linearGradient id="paint5_linear_2_3" x1="31803.6" y1="20068.9" x2="31879.1" y2="20381.2" gradientUnits="userSpaceOnUse">
<stop stop-color="#FFD13D"/>
<stop offset="0.02" stop-color="#FFD242"/>
<stop offset="0.05" stop-color="#FFD54F"/>
<stop offset="0.08" stop-color="#FFDB65"/>
<stop offset="0.11" stop-color="#FFE285"/>
<stop offset="0.14" stop-color="#FFECAD"/>
<stop offset="0.17" stop-color="#FFF7DD"/>
<stop offset="0.19" stop-color="white"/>
<stop offset="0.22" stop-color="#FFFEFA"/>
<stop offset="0.25" stop-color="#FFFAEC"/>
<stop offset="0.28" stop-color="#FEF3D4"/>
<stop offset="0.31" stop-color="#FDEAB3"/>
<stop offset="0.35" stop-color="#FCDF88"/>
<stop offset="0.38" stop-color="#FBD154"/>
<stop offset="0.42" stop-color="#FABF13"/>
<stop offset="0.45" stop-color="#F9BD13"/>
<stop offset="0.46" stop-color="#F4B514"/>
<stop offset="0.48" stop-color="#ECA816"/>
<stop offset="0.49" stop-color="#D37E1B"/>
<stop offset="0.5" stop-color="#C1601E"/>
<stop offset="0.63" stop-color="#CA761C"/>
<stop offset="0.87" stop-color="#D99918"/>
<stop offset="1" stop-color="#DFA617"/>
</linearGradient>
<linearGradient id="paint6_linear_2_3" x1="11834.3" y1="27900.5" x2="12478.3" y2="27938.8" gradientUnits="userSpaceOnUse">
<stop stop-color="#FFD13D"/>
<stop offset="0.02" stop-color="#FFD242"/>
<stop offset="0.05" stop-color="#FFD54F"/>
<stop offset="0.08" stop-color="#FFDB65"/>
<stop offset="0.11" stop-color="#FFE285"/>
<stop offset="0.14" stop-color="#FFECAD"/>
<stop offset="0.17" stop-color="#FFF7DD"/>
<stop offset="0.19" stop-color="white"/>
<stop offset="0.22" stop-color="#FFFEFA"/>
<stop offset="0.25" stop-color="#FFFAEC"/>
<stop offset="0.28" stop-color="#FEF3D4"/>
<stop offset="0.31" stop-color="#FDEAB3"/>
<stop offset="0.35" stop-color="#FCDF88"/>
<stop offset="0.38" stop-color="#FBD154"/>
<stop offset="0.42" stop-color="#FABF13"/>
<stop offset="0.45" stop-color="#F9BD13"/>
<stop offset="0.47" stop-color="#F4B514"/>
<stop offset="0.48" stop-color="#ECA816"/>
<stop offset="0.49" stop-color="#E19618"/>
<stop offset="0.5" stop-color="#D37E1B"/>
<stop offset="0.51" stop-color="#C1601E"/>
<stop offset="0.64" stop-color="#CA761C"/>
<stop offset="0.87" stop-color="#D99918"/>
<stop offset="1" stop-color="#DFA617"/>
</linearGradient>
</defs>
</svg>
