<svg width="49" height="79" viewBox="0 0 49 79" fill="none" xmlns="http://www.w3.org/2000/svg">
    <g opacity="0.2">
        <path opacity="0.2"
            d="M7.41636 40.1787C7.82966 40.1251 8.25828 40.1787 8.67541 40.1366C9.25407 40.0763 9.81198 39.8877 10.3085 39.5845C10.805 39.2813 11.2277 38.8711 11.5456 38.3839C12.0834 37.5407 12.6713 36.7305 13.306 35.9576C14.5803 34.5417 16.0039 33.252 17.2439 31.8093C17.8638 31.0898 18.2388 30.1522 18.6789 29.2912C18.9009 28.8587 18.9736 28.3497 19.1994 27.9211C19.5362 27.2744 20.0184 26.6927 20.2939 26.0077C20.4738 25.5752 20.3896 25.0318 20.4393 24.3353L23.2406 24.519C23.2184 24.6897 23.1839 24.8585 23.1373 25.0242C22.0268 27.912 20.5475 30.6441 18.7363 33.1525C18.1968 33.9179 17.638 34.6412 17.1099 35.3989C16.4019 36.4245 15.736 37.4846 15.0089 38.4987C14.6262 39.0536 14.1249 39.5473 13.6925 40.0792C13.6504 40.1328 13.6925 40.2476 13.6925 40.3854L14.4579 40.1022L14.1249 40.7757C14.764 40.5116 15.4682 40.3586 16.0039 39.972C16.9377 39.2985 17.749 38.4413 18.6483 37.7371C18.8313 37.5995 19.0274 37.4803 19.2338 37.3812C18.7593 38.0739 18.0858 38.9656 17.1367 40.1443C18.6066 38.7019 19.9485 37.1346 21.1473 35.4601C22.2954 33.9753 23.4166 32.4713 24.404 30.887C25.9122 28.4057 27.0324 25.7085 27.7257 22.8887C27.8256 22.4593 28.077 22.0802 28.4337 21.821C30.1558 20.8413 31.9277 19.942 33.8297 18.9356V28.5028C32.2759 27.703 31.8282 27.9288 31.7631 29.3562L30.7643 29.1687C30.9365 29.471 30.8294 29.6011 30.9289 29.7772L30.5462 29.9303C30.9748 30.9788 31.3804 31.9738 31.7784 32.9688C31.8167 33.0683 31.8282 33.2558 31.7784 33.3056C31.1853 33.8069 31.5106 34.3809 31.5986 34.955C31.6834 35.333 31.6834 35.7251 31.5986 36.1031C31.0284 37.9361 32.1764 38.7207 33.6345 39.0766C35.5747 39.5473 38.7893 37.0062 38.5253 34.9282C38.3542 33.1279 38.4393 31.3125 38.7779 29.5361C38.8428 28.6996 38.8594 27.8602 38.8276 27.0218C38.8276 26.5396 38.9501 26.0651 38.9807 25.5829C39.0189 24.917 39.0381 24.2473 39.0457 23.5814C39.0649 21.4039 39.1529 19.2187 39.0457 17.0451C38.996 15.9391 39.3787 14.8637 38.9807 13.6965C38.7549 13.0306 39.2715 12.0969 39.5011 11.297C39.7308 10.4972 39.1184 9.61703 38.2957 9.76628C36.83 10.0495 35.3489 10.3327 34.0134 11.0636C32.8653 11.6874 31.7172 12.292 30.5691 12.9158L32.318 6.02739C31.8818 5.6447 31.4072 5.39213 31.17 4.99796C30.6572 4.12925 29.754 3.94555 28.9618 3.59348C27.5688 2.97735 26.6657 4.14073 25.4717 4.54638C25.7702 5.36916 25.4296 5.54138 24.867 6.01209C24.1017 6.66649 23.9333 7.34385 24.4116 8.24317C24.691 8.77129 24.9015 9.33384 25.177 9.85813C25.3263 10.1337 25.2995 10.7039 25.5865 10.7842C26.704 11.0866 27.1632 11.4233 26.7728 12.9541C26.6542 13.4172 26.5394 13.8802 26.3902 14.3318C26.3021 14.5729 26.1759 14.8943 25.9769 14.99C24.4155 15.7209 22.8962 16.5782 21.2468 17.0757C20.4393 17.3206 20.2633 17.1828 20.3207 16.3945C21.109 16.5897 21.4114 16.4481 20.9062 15.675C20.8176 15.469 20.7846 15.2434 20.8105 15.0206C21.7634 14.8025 20.9177 14.0907 21.1932 13.708L21.8093 13.8419C20.9904 12.4298 22.3757 13.1493 22.7202 12.6939L22.3796 12.1237C21.0708 9.90788 20.0834 9.29175 17.5653 9.87726C15.0472 10.4628 12.7472 11.5802 10.497 12.8393C9.23651 13.5818 7.90914 14.2045 6.53234 14.6992C5.38427 15.0819 4.30126 15.4148 3.31774 16.1878C2.39929 16.9111 1.86352 17.6382 2.16967 18.8667L2.96184 18.7251C2.88913 18.7748 2.85468 19.2034 2.78197 19.2532C3.66599 20.627 4.51173 21.6182 5.39958 22.9921C6.45197 24.6262 8.66393 24.6644 10.0569 23.8723C10.5047 23.6159 10.9218 23.3059 11.5877 22.8773C11.5226 24.3506 11.4231 25.5944 11.4231 26.8343C11.4231 28.7171 10.4932 29.9456 8.87058 30.7492C8.60242 30.9376 8.32106 31.1064 8.02866 31.2544C7.45463 31.4342 6.83466 31.7021 6.27211 31.637C5.39322 31.4789 4.55588 31.1429 3.81141 30.6497C3.45168 30.8985 2.49495 31.6677 2.13523 31.8973C0.730751 32.7928 0.803464 33.3898 1.4196 34.8899C1.68508 35.4879 2.02727 36.0488 2.43755 36.5585C2.98729 37.2872 3.58159 37.9812 4.21706 38.6365C5.0896 39.5205 6.0004 40.3739 7.41636 40.1787ZM16.0575 21.2853C16.0843 20.9026 16.3637 20.5199 16.3177 20.1869C16.1647 19.0121 16.7004 18.4074 17.7796 18.1281C18.457 17.952 19.119 17.7109 20.0184 17.4239L18.6101 18.748C18.7172 19.0006 18.6483 19.5899 18.7287 19.7736C18.346 20.5122 18.0513 20.8337 17.8638 21.557C17.5309 22.8466 18.5412 23.3748 19.452 23.9258C19.6735 24.0311 19.8795 24.1663 20.0643 24.3277C19.8332 24.3332 19.6045 24.3759 19.3869 24.4539C18.8741 24.6874 18.3728 24.9514 17.8829 25.2193C17.2209 25.602 16.5703 25.9847 15.7284 26.486C15.8394 24.5994 15.9274 22.9576 16.0575 21.2853Z"
            fill="#231F20" />
        <path opacity="0.2"
            d="M42.8726 74.7319H45.9724C44.1508 73.7522 42.2986 72.9485 40.4731 72.0913C37.7025 70.7901 34.9433 69.4546 32.1879 68.1151C31.3 67.6827 30.4237 67.2235 29.5779 66.7183C27.7908 65.6468 26.0457 64.4987 24.2203 63.4578C23.6692 63.1402 22.9383 62.8455 22.3604 62.945C21.4343 63.1057 21.2123 62.3939 20.4278 61.9002C21.4152 61.5175 21.9318 61.4869 22.8196 61.1349C23.1602 61.0009 23.4817 60.8134 23.8261 60.6948C24.7407 60.3848 25.7396 60.2547 26.5623 59.7725C28.2424 58.7584 29.8994 58.2111 31.8052 59.0645C32.4175 59.3362 33.091 59.3592 33.5311 58.7966C34.1173 58.0116 34.6602 57.1953 35.1576 56.3512C35.2092 56.2622 35.2404 56.1628 35.249 56.0602C35.2576 55.9576 35.2434 55.8545 35.2073 55.758C34.8561 55.1538 34.4729 54.5687 34.0593 54.0053C33.8224 53.7074 33.5668 53.4249 33.2939 53.1596C32.8882 53.0065 32.5515 52.907 32.2415 52.7539C31.522 52.4057 30.8217 51.9885 30.0908 51.6824C29.8341 51.5957 29.5543 51.608 29.3062 51.7168C28.4299 52.0995 27.6186 52.6927 26.7116 52.9415C24.8441 53.4504 21.2697 54.1622 20.7531 54.2923C20.8531 53.56 21.0262 52.8395 21.2697 52.1416C23.076 51.0663 25.265 50.6836 26.7996 49.7001C26.9336 49.612 27.2167 49.7001 27.4119 49.7689C28.0434 49.9909 28.3993 49.746 28.7054 49.1796C29.1187 48.4142 29.421 47.5876 30.2591 47.0671C30.527 46.9026 30.6418 45.9191 30.439 45.6588C29.0881 44.0898 27.5382 42.8269 25.2229 43.267C24.5705 43.3552 23.9139 43.4102 23.2559 43.4316C23.421 43.0783 23.5679 42.7169 23.696 42.3486C23.7845 42.0506 23.8271 41.7409 23.8223 41.4301C23.807 40.7173 23.8493 40.0045 23.9486 39.2985C22.5288 38.4222 20.0183 39.2105 19.5897 40.8293C19.345 41.7436 19.1874 42.6789 19.119 43.6229C19.0807 44.1664 19.1879 44.1817 18.3919 44.4572C16.9262 44.9623 15.449 45.4216 13.9718 45.8923C13.6863 45.9666 13.396 46.0216 13.1031 46.0568C12.2832 46.1453 11.4718 46.3002 10.6769 46.5199C10.3784 46.6232 10.2291 47.2049 10.0531 47.5838C9.9727 47.7598 10.0531 48.0124 9.94209 48.1769C9.5594 48.8467 9.80432 49.3556 10.2712 49.8608C10.5175 50.1616 10.7413 50.4801 10.9409 50.8137C12.4449 53.0218 14.5038 54.0704 17.1864 53.8293C17.4084 53.8102 17.7069 53.6035 18.0245 53.5538C17.9382 54.1093 17.7946 54.6543 17.5959 55.1802C17.4109 55.4598 17.1262 55.6582 16.7999 55.7351C16.4593 55.8269 15.9121 55.9571 15.5715 56.0489C14.9706 56.2096 14.5535 56.2709 13.9489 56.3895C12.9118 56.5923 11.1858 56.8679 10.8223 56.7224C9.8158 56.4852 9.03511 56.2135 8.08604 56.8832C7.24412 57.4802 6.34097 59.4281 6.78489 60.3274C7.73014 62.2408 9.05042 63.7142 11.3351 63.9247C12.6072 64.1005 13.8993 64.0708 15.162 63.8367C12.5099 69.9597 8.59119 75.4513 2.59826 78.8534C3.13072 78.86 3.66147 78.7917 4.17494 78.6506C5.66361 78.2067 7.23646 77.7666 8.58736 77.0318C9.88421 76.3134 11.049 75.379 12.0316 74.2688C13.1567 73.0097 14.0598 71.5479 15.0319 70.1587C16.6105 67.9876 17.8111 65.5656 18.5832 62.9947C18.6942 62.612 19.3486 62.3633 19.7543 62.0533C19.8308 62.1413 19.7543 62.436 19.8423 62.5049C19.614 62.8401 19.341 63.1427 19.031 63.4042C18.5067 63.7869 18.5718 64.227 18.809 64.6594C19.1943 65.4342 19.6517 66.1709 20.1752 66.8599C21.7978 68.8231 23.4396 70.771 25.1502 72.65C26.6575 74.389 28.5195 75.7853 30.6112 76.7448C33.091 77.824 35.0122 77.9388 38.265 77.7704C38.376 77.7704 38.4908 77.6862 38.6056 77.6709C40.3316 77.3992 41.8011 76.0751 43.6916 76.4157L42.4019 75.9182C42.9185 74.9041 43.8446 76.0751 44.457 75.5087L42.8458 74.9385L42.8726 74.7319Z"
            fill="#231F20" />
    </g>
    <path
        d="M7.41636 37.8826C7.82966 37.829 8.25828 37.8826 8.67541 37.8405C9.25407 37.7802 9.81198 37.5916 10.3085 37.2883C10.805 36.9851 11.2277 36.575 11.5456 36.0877C12.0834 35.2446 12.6713 34.4344 13.306 33.6615C14.5803 32.2455 16.0039 30.9559 17.2439 29.5131C17.8638 28.7937 18.2388 27.8561 18.6789 26.995C18.9009 26.5626 18.9736 26.0536 19.1994 25.625C19.5362 24.9782 20.0184 24.3965 20.2939 23.7115C20.4738 23.2791 20.3896 22.7357 20.4393 22.0392L23.2406 22.2229C23.2184 22.3935 23.1839 22.5623 23.1373 22.728C22.0268 25.6158 20.5475 28.3479 18.7363 30.8564C18.1968 31.6217 17.638 32.345 17.1099 33.1028C16.4019 34.1284 15.736 35.1884 15.0089 36.2025C14.6262 36.7575 14.1249 37.2511 13.6925 37.7831C13.6504 37.8366 13.6925 37.9515 13.6925 38.0892L14.4579 37.806L14.1249 38.4796C14.764 38.2155 15.4682 38.0624 16.0039 37.6759C16.9377 37.0024 17.749 36.1451 18.6483 35.441C18.8313 35.3033 19.0274 35.1841 19.2338 35.0851C18.7593 35.7778 18.0858 36.6694 17.1367 37.8481C18.6066 36.4057 19.9485 34.8385 21.1473 33.164C22.2954 31.6791 23.4166 30.1752 24.404 28.5908C25.9122 26.1096 27.0324 23.4123 27.7257 20.5926C27.8256 20.1631 28.077 19.7841 28.4337 19.5249C30.1558 18.5452 31.9277 17.6459 33.8297 16.6394V26.2067C32.2759 25.4069 31.8282 25.6326 31.7631 27.0601L30.7643 26.8726C30.9365 27.1749 30.8294 27.305 30.9289 27.481L30.5462 27.6341C30.9748 28.6827 31.3804 29.6777 31.7784 30.6727C31.8167 30.7722 31.8282 30.9597 31.7784 31.0094C31.1853 31.5108 31.5106 32.0848 31.5986 32.6588C31.6834 33.0368 31.6834 33.4289 31.5986 33.8069C31.0284 35.64 32.1764 36.4245 33.6345 36.7804C35.5747 37.2511 38.7893 34.7101 38.5253 32.632C38.3542 30.8318 38.4393 29.0163 38.7779 27.2399C38.8428 26.4035 38.8594 25.564 38.8276 24.7257C38.8276 24.2435 38.9501 23.7689 38.9807 23.2867C39.0189 22.6209 39.0381 21.9512 39.0457 21.2853C39.0649 19.1078 39.1529 16.9226 39.0457 14.7489C38.996 13.6429 39.3787 12.5676 38.9807 11.4004C38.7549 10.7345 39.2715 9.80072 39.5011 9.0009C39.7308 8.20108 39.1184 7.32089 38.2957 7.47014C36.83 7.75333 35.3489 8.03652 34.0134 8.76746C32.8653 9.39124 31.7172 9.99589 30.5691 10.6197L32.318 3.73125C31.8818 3.34856 31.4072 3.09599 31.17 2.70182C30.6572 1.83311 29.754 1.64941 28.9618 1.29734C27.5688 0.681204 26.6657 1.84459 25.4717 2.25024C25.7702 3.07302 25.4296 3.24523 24.867 3.71594C24.1017 4.37034 23.9333 5.04771 24.4116 5.94703C24.691 6.47514 24.9015 7.0377 25.177 7.56199C25.3263 7.83752 25.2995 8.40773 25.5865 8.4881C26.704 8.79042 27.1632 9.12719 26.7728 10.658C26.6542 11.121 26.5394 11.5841 26.3902 12.0356C26.3021 12.2767 26.1759 12.5982 25.9769 12.6939C24.4155 13.4248 22.8962 14.282 21.2468 14.7795C20.4393 15.0245 20.2633 14.8867 20.3207 14.0983C21.109 14.2935 21.4114 14.1519 20.9062 13.3789C20.8176 13.1729 20.7846 12.9472 20.8105 12.7245C21.7634 12.5063 20.9177 11.7945 21.1932 11.4119L21.8093 11.5458C20.9904 10.1337 22.3757 10.8531 22.7202 10.3977L22.3796 9.82751C21.0708 7.61173 20.0834 6.9956 17.5653 7.58112C15.0472 8.16664 12.7472 9.28409 10.497 10.5431C9.23651 11.2857 7.90914 11.9084 6.53234 12.403C5.38427 12.7857 4.30126 13.1187 3.31774 13.8917C2.39929 14.615 1.86352 15.3421 2.16967 16.5705L2.96184 16.4289C2.88913 16.4787 2.85468 16.9073 2.78197 16.957C3.66599 18.3309 4.51173 19.3221 5.39958 20.6959C6.45197 22.33 8.66393 22.3683 10.0569 21.5761C10.5047 21.3197 10.9218 21.0097 11.5877 20.5811C11.5226 22.0545 11.4231 23.2982 11.4231 24.5381C11.4231 26.421 10.4932 27.6494 8.87058 28.4531C8.60242 28.6414 8.32106 28.8102 8.02866 28.9582C7.45463 29.1381 6.83466 29.406 6.27211 29.3409C5.39322 29.1827 4.55588 28.8468 3.81141 28.3536C3.45168 28.6023 2.49495 29.3715 2.13523 29.6011C0.730751 30.4966 0.803464 31.0936 1.4196 32.5938C1.68508 33.1918 2.02727 33.7527 2.43755 34.2623C2.98729 34.991 3.58159 35.685 4.21706 36.3403C5.0896 37.2243 6.0004 38.0777 7.41636 37.8826ZM16.0575 18.9891C16.0843 18.6064 16.3637 18.2237 16.3177 17.8908C16.1647 16.7159 16.7004 16.1113 17.7796 15.8319C18.457 15.6559 19.119 15.4148 20.0184 15.1278L18.6101 16.4519C18.7172 16.7045 18.6483 17.2938 18.7287 17.4775C18.346 18.2161 18.0513 18.5375 17.8638 19.2608C17.5309 20.5505 18.5412 21.0786 19.452 21.6297C19.6735 21.735 19.8795 21.8702 20.0643 22.0315C19.8332 22.0371 19.6045 22.0797 19.3869 22.1578C18.8741 22.3912 18.3728 22.6553 17.8829 22.9232C17.2209 23.3059 16.5703 23.6886 15.7284 24.1899C15.8394 22.3032 15.9274 20.6615 16.0575 18.9891Z"
        fill="#501115" stroke="#501115" stroke-width="1.14807" stroke-miterlimit="10" stroke-linecap="round" />
    <path
        d="M42.8726 72.4357H45.9724C44.1508 71.456 42.2986 70.6524 40.4731 69.7951C37.7025 68.494 34.9433 67.1584 32.1879 65.819C31.3 65.3865 30.4237 64.9273 29.5779 64.4222C27.7908 63.3506 26.0457 62.2025 24.2203 61.1616C23.6692 60.844 22.9383 60.5493 22.3604 60.6488C21.4343 60.8095 21.2123 60.0977 20.4278 59.6041C21.4152 59.2214 21.9318 59.1908 22.8196 58.8387C23.1602 58.7048 23.4817 58.5172 23.8261 58.3986C24.7407 58.0886 25.7396 57.9585 26.5623 57.4763C28.2424 56.4622 29.8994 55.9149 31.8052 56.7683C32.4175 57.0401 33.091 57.063 33.5311 56.5005C34.1173 55.7155 34.6602 54.8991 35.1576 54.0551C35.2092 53.966 35.2404 53.8666 35.249 53.7641C35.2576 53.6615 35.2434 53.5583 35.2073 53.4619C34.8561 52.8576 34.4729 52.2725 34.0592 51.7092C33.8224 51.4112 33.5668 51.1287 33.2939 50.8634C32.8882 50.7104 32.5514 50.6108 32.2415 50.4578C31.522 50.1095 30.8217 49.6924 30.0907 49.3862C29.8341 49.2995 29.5543 49.3118 29.3062 49.4207C28.4299 49.8034 27.6186 50.3965 26.7116 50.6453C24.8441 51.1543 21.2697 51.8661 20.7531 51.9962C20.8531 51.2638 21.0262 50.5433 21.2697 49.8455C23.076 48.7701 25.265 48.3874 26.7996 47.4039C26.9335 47.3159 27.2167 47.4039 27.4119 47.4728C28.0434 47.6947 28.3992 47.4498 28.7054 46.8834C29.1187 46.1181 29.421 45.2914 30.2591 44.771C30.527 44.6064 30.6418 43.6229 30.439 43.3627C29.0881 41.7937 27.5382 40.5308 25.2229 40.9709C24.5705 41.0591 23.9139 41.114 23.2559 41.1354C23.421 40.7822 23.5679 40.4207 23.696 40.0524C23.7845 39.7544 23.827 39.4447 23.8223 39.1339C23.807 38.4212 23.8493 37.7084 23.9486 37.0024C22.5288 36.126 20.0183 36.9144 19.5897 38.5331C19.345 39.4474 19.1874 40.3828 19.119 41.3268C19.0807 41.8702 19.1879 41.8855 18.3919 42.161C16.9262 42.6662 15.449 43.1254 13.9718 43.5961C13.6863 43.6704 13.396 43.7254 13.1031 43.7607C12.2832 43.8491 11.4717 44.004 10.6768 44.2237C10.3783 44.3271 10.2291 44.9088 10.0531 45.2876C9.9727 45.4637 10.0531 45.7162 9.94208 45.8808C9.55939 46.5505 9.80431 47.0595 10.2712 47.5646C10.5175 47.8654 10.7413 48.1839 10.9409 48.5175C12.4449 50.7257 14.5038 51.7742 17.1864 51.5331C17.4084 51.514 17.7069 51.3073 18.0245 51.2576C17.9382 51.8131 17.7946 52.3582 17.5959 52.884C17.4109 53.1636 17.1262 53.3621 16.7999 53.4389C16.4593 53.5308 15.9121 53.6609 15.5715 53.7527C14.9706 53.9135 14.5535 53.9747 13.9489 54.0933C12.9118 54.2962 11.1858 54.5717 10.8223 54.4263C9.8158 54.189 9.0351 53.9173 8.08603 54.587C7.24411 55.184 6.34096 57.1319 6.78489 58.0312C7.73013 59.9447 9.05041 61.418 11.3351 61.6285C12.6072 61.8043 13.8993 61.7746 15.162 61.5405C12.5099 67.6635 8.59118 73.1552 2.59825 76.5573C3.13072 76.5638 3.66146 76.4955 4.17493 76.3544C5.6636 75.9105 7.23646 75.4704 8.58736 74.7357C9.88421 74.0172 11.049 73.0828 12.0316 71.9726C13.1567 70.7136 14.0598 69.2517 15.0319 67.8625C16.6104 65.6915 17.8111 63.2694 18.5832 60.6986C18.6942 60.3159 19.3486 60.0671 19.7543 59.7572C19.8308 59.8452 19.7543 60.1398 19.8423 60.2087C19.614 60.544 19.341 60.8465 19.031 61.1081C18.5067 61.4907 18.5718 61.9308 18.809 62.3633C19.1943 63.138 19.6517 63.8748 20.1752 64.5637C21.7978 66.527 23.4396 68.4748 25.1502 70.3539C26.6574 72.0929 28.5195 73.4891 30.6112 74.4486C33.091 75.5278 35.0121 75.6426 38.265 75.4743C38.376 75.4743 38.4908 75.3901 38.6056 75.3748C40.3315 75.103 41.8011 73.7789 43.6916 74.1195L42.4019 73.622C42.9185 72.6079 43.8446 73.7789 44.4569 73.2126L42.8458 72.6423L42.8726 72.4357Z"
        fill="#501115" stroke="#501115" stroke-width="1.14807" stroke-miterlimit="10" stroke-linecap="round" />
    <path
        d="M7.4194 37.6108C7.83271 37.5573 8.26132 37.6108 8.67846 37.5687C9.25711 37.5085 9.81502 37.3198 10.3116 37.0166C10.8081 36.7134 11.2307 36.3033 11.5486 35.816C12.0865 34.9729 12.6743 34.1627 13.309 33.3898C14.5834 31.9738 16.007 30.6841 17.2469 29.2414C17.8669 28.5219 18.2419 27.5843 18.682 26.7233C18.904 26.2908 18.9767 25.7819 19.2024 25.3533C19.5392 24.7065 20.0214 24.1248 20.2969 23.4398C20.4768 23.0074 20.3926 22.4639 20.4424 21.7674L23.2437 21.9511C23.2214 22.1218 23.1869 22.2906 23.1403 22.4563C22.0286 25.3388 20.5494 28.0657 18.7394 30.5693C18.1998 31.3347 17.6411 32.058 17.113 32.8157C16.405 33.8413 15.7391 34.9014 15.012 35.9155C14.6293 36.4704 14.128 36.9641 13.6955 37.496C13.6534 37.5496 13.6955 37.6644 13.6955 37.8022L14.4609 37.519L14.128 38.1925C14.7671 37.9285 15.4712 37.7754 16.007 37.3889C16.9407 36.7153 17.752 35.8581 18.6514 35.154C18.8343 35.0163 19.0304 34.8971 19.2369 34.7981C18.7623 35.4907 18.0888 36.3824 17.1397 37.5611C18.6096 36.1187 19.9515 34.5514 21.1503 32.877C22.2984 31.3921 23.4197 29.8881 24.407 28.3038C25.9153 25.8225 27.0355 23.1253 27.7288 20.3056C27.8287 19.8761 28.08 19.497 28.4368 19.2379C30.1589 18.2582 31.9307 17.3589 33.8327 16.3524V25.9196C32.279 25.1198 31.8312 25.3456 31.7662 26.773L30.7674 26.5855C30.9396 26.8878 30.8324 27.018 30.9319 27.194L30.5492 27.3471C30.9778 28.3956 31.3835 29.3906 31.7815 30.3856C31.8198 30.4851 31.8312 30.6727 31.7815 30.7224C31.1883 31.2237 31.5136 31.7978 31.6016 32.3718C31.6864 32.7498 31.6864 33.1419 31.6016 33.5199C31.0314 35.353 32.1795 36.1375 33.6375 36.4934C35.5778 36.9641 38.7924 34.423 38.5283 32.345C38.3573 30.5447 38.4423 28.7293 38.7809 26.9529C38.8458 26.1165 38.8624 25.277 38.8307 24.4386C38.8307 23.9564 38.9531 23.4819 38.9837 22.9997C39.022 22.3338 39.0411 21.6641 39.0488 20.9982C39.0679 18.8207 39.1559 16.6356 39.0488 14.4619C38.999 13.3559 39.3817 12.2805 38.9837 11.1133C38.7579 10.4475 39.2746 9.51369 39.5042 8.71387C39.7338 7.91404 39.1215 7.03386 38.2987 7.1831C36.833 7.4663 35.352 7.74949 34.0164 8.48043C32.8683 9.10421 31.7203 9.70886 30.5722 10.3326L32.3211 3.44422C31.8848 3.06152 31.4103 2.80895 31.173 2.41478C30.6602 1.54607 29.7571 1.36238 28.9649 1.0103C27.5719 0.394171 26.6687 1.55755 25.4747 1.9632C25.7732 2.78599 25.4326 2.9582 24.8701 3.42891C24.1047 4.08331 23.9363 4.76067 24.4147 5.66C24.6941 6.18811 24.9045 6.75067 25.1801 7.27495C25.3293 7.55049 25.3025 8.1207 25.5896 8.20106C26.707 8.50339 27.1662 8.84016 26.7759 10.3709C26.6573 10.834 26.5425 11.297 26.3932 11.7486C26.3052 11.9897 26.1789 12.3112 25.9799 12.4068C24.4185 13.1378 22.8992 13.995 21.2498 14.4925C20.4424 14.7374 20.2663 14.5997 20.3237 13.8113C21.1121 14.0065 21.4144 13.8649 20.9093 13.0918C20.8207 12.8858 20.7877 12.6602 20.8136 12.4374C21.7665 12.2193 20.9207 11.5075 21.1963 11.1248L21.8124 11.2588C20.9934 9.84663 22.3788 10.5661 22.7232 10.1107L22.375 9.56344C21.0662 7.34766 20.0788 6.73153 17.5607 7.31705C15.0426 7.90257 12.7426 9.02002 10.4924 10.2791C9.2319 11.0216 7.90453 11.6443 6.52773 12.1389C5.37966 12.5216 4.29665 12.8546 3.31313 13.6276C2.39468 14.3509 1.85891 15.078 2.16506 16.3064L2.95723 16.1649C2.88452 16.2146 2.85007 16.6432 2.77736 16.693C3.66138 18.0668 4.50713 19.058 5.39497 20.4319C6.44737 22.0659 8.65932 22.1042 10.0523 21.312C10.5001 21.0556 10.9172 20.7457 11.5831 20.3171C11.518 21.7904 11.4185 23.0342 11.4185 24.2741C11.4185 26.1569 10.4886 27.3853 8.86597 28.189C8.59793 28.3787 8.31656 28.5488 8.02405 28.698C7.45002 28.8778 6.83006 29.1457 6.26751 29.0807C5.39631 28.9183 4.56704 28.5812 3.82976 28.0895C3.47003 28.3382 2.51331 29.1075 2.15358 29.3371C0.749107 30.2326 0.821814 30.8296 1.43795 32.3297C1.70343 32.9277 2.04562 33.4886 2.4559 33.9982C3.00564 34.727 3.59995 35.421 4.23542 36.0762C5.09265 36.9373 6.00345 37.7907 7.4194 37.6108ZM16.0606 18.7021C16.0873 18.3194 16.3667 17.9367 16.3208 17.6038C16.1677 16.4289 16.7035 15.8243 17.7827 15.5449C18.46 15.3689 19.1221 15.1278 20.0214 14.8407L18.6169 16.1687C18.7241 16.4213 18.6552 17.0106 18.7356 17.1943C18.3529 17.9329 18.0582 18.2543 17.8707 18.9776C17.5377 20.2673 18.548 20.7954 19.4589 21.3465C19.6804 21.4518 19.8864 21.587 20.0712 21.7483C19.8401 21.7539 19.6114 21.7965 19.3938 21.8746C18.881 22.108 18.3797 22.3721 17.8898 22.64C17.2278 23.0227 16.5772 23.4054 15.7353 23.9067C15.8424 22.0162 15.9304 20.3591 16.0606 18.7021Z"
        fill="url(#paint0_linear_2_269)" />
    <path
        d="M42.8727 72.1487H45.9725C44.1509 71.169 42.2987 70.3653 40.4732 69.5081C37.7026 68.207 34.9434 66.8714 32.188 65.532C31.3001 65.0995 30.4238 64.6403 29.578 64.1351C27.7909 63.0636 26.0458 61.9155 24.2204 60.8746C23.6693 60.557 22.9384 60.2623 22.3605 60.3618C21.4344 60.5225 21.2124 59.8107 20.4279 59.3171C21.4153 58.9344 21.9319 58.9038 22.8197 58.5517C23.1603 58.4177 23.4818 58.2302 23.8262 58.1116C24.7408 57.8016 25.7397 57.6715 26.5624 57.1893C28.2425 56.1752 29.8995 55.6279 31.8053 56.4813C32.4176 56.753 33.0911 56.776 33.5312 56.2134C34.1174 55.4284 34.6603 54.6121 35.1577 53.768C35.2093 53.679 35.2405 53.5796 35.2491 53.477C35.2577 53.3745 35.2435 53.2713 35.2074 53.1749C34.8562 52.5706 34.473 51.9855 34.0593 51.4222C33.8225 51.1242 33.5669 50.8417 33.294 50.5764C32.8883 50.4233 32.5515 50.3238 32.2416 50.1707C31.5221 49.8225 30.8218 49.4054 30.0908 49.0992C29.8342 49.0125 29.5544 49.0248 29.3063 49.1337C28.43 49.5163 27.6187 50.1095 26.7117 50.3583C24.8442 50.8673 21.2698 51.5791 20.7532 51.7092C20.8532 50.9768 21.0263 50.2563 21.2698 49.5585C23.0761 48.4831 25.2651 48.1004 26.7997 47.1169C26.9336 47.0289 27.2168 47.1169 27.412 47.1858C28.0435 47.4077 28.3993 47.1628 28.7055 46.5964C29.1188 45.831 29.4211 45.0044 30.2592 44.484C30.5271 44.3194 30.6419 43.3359 30.4391 43.0757C29.0882 41.5066 27.5383 40.2438 25.223 40.6839C24.5706 40.7721 23.914 40.827 23.256 40.8484C23.4211 40.4952 23.568 40.1337 23.6961 39.7654C23.7846 39.4674 23.8271 39.1577 23.8224 38.8469C23.8071 38.1342 23.8494 37.4213 23.9487 36.7154C22.5289 35.839 20.0184 36.6273 19.5898 38.2461C19.3533 39.1586 19.2034 40.0914 19.1421 41.0321C19.1038 41.5755 19.2109 41.5908 18.415 41.8664C16.9492 42.3715 15.4721 42.8307 13.9949 43.3015C13.7093 43.3758 13.4191 43.4307 13.1262 43.466C12.3062 43.5545 11.4948 43.7093 10.6999 43.9291C10.4014 44.0324 10.2522 44.6141 10.0761 44.9929C9.99575 45.169 10.0761 45.4216 9.96514 45.5861C9.58245 46.2558 9.82737 46.7648 10.2943 47.27C10.5405 47.5708 10.7644 47.8892 10.964 48.2229C12.4679 50.431 14.5268 51.4796 17.2095 51.2385C17.4314 51.2193 17.7299 51.0127 18.0476 50.9629C17.9613 51.5184 17.8176 52.0635 17.6189 52.5894C17.4339 52.8689 17.1493 53.0674 16.823 53.1443C16.4824 53.2361 15.9351 53.3662 15.5945 53.4581C14.9937 53.6188 14.5766 53.68 13.9719 53.7987C12.9348 54.0015 11.2089 54.277 10.8453 54.1316C9.83885 53.8943 9.05816 53.6226 8.10909 54.2923C7.26717 54.8893 6.36402 56.8372 6.80794 57.7365C7.75319 59.65 9.07347 61.1234 11.3581 61.3338C12.6303 61.5096 13.9224 61.4799 15.185 61.2458C12.533 67.3689 8.61424 72.8605 2.62131 76.2626C3.15377 76.2691 3.68452 76.2009 4.19799 76.0598C5.68666 75.6159 7.25952 75.1758 8.61041 74.441C9.90727 73.7226 11.072 72.7882 12.0546 71.678C13.1797 70.4189 14.0829 68.957 15.0549 67.5679C16.6335 65.3968 17.8342 62.9748 18.6063 60.4039C18.7173 60.0212 19.3717 59.7725 19.7773 59.4625C19.8539 59.5505 19.7773 59.8452 19.8654 59.9141C19.637 60.2493 19.3641 60.5519 19.054 60.8134C18.5298 61.1961 18.5948 61.6362 18.8321 62.0686C19.2174 62.8434 19.6748 63.5801 20.1983 64.2691C21.8209 66.2323 23.4626 68.1802 25.1733 70.0592C26.6805 71.7982 28.5426 73.1944 30.6343 74.154C33.1141 75.2332 35.0352 75.348 38.2881 75.1796C38.3991 75.1796 38.5139 75.0954 38.6287 75.0801C40.3546 74.8084 41.8241 73.4843 43.7146 73.8249L42.425 73.3274C42.9416 72.3132 43.8677 73.4843 44.48 72.9179L42.8459 72.3553L42.8727 72.1487Z"
        fill="url(#paint1_linear_2_269)" />
    <defs>
        <linearGradient id="paint0_linear_2_269" x1="20.2778" y1="75.3901" x2="20.2778" y2="1.14042"
            gradientUnits="userSpaceOnUse">
            <stop stop-color="#D0232A" />
            <stop offset="1" stop-color="#961417" />
        </linearGradient>
        <linearGradient id="paint1_linear_2_269" x1="12119.3" y1="14364.7" x2="12119.3" y2="6621.21"
            gradientUnits="userSpaceOnUse">
            <stop stop-color="#D0232A" />
            <stop offset="1" stop-color="#961417" />
        </linearGradient>
    </defs>
</svg>