<svg width="214" height="216" viewBox="0 0 214 216" fill="none" xmlns="http://www.w3.org/2000/svg">
<path d="M212.54 82.3734L154.314 9.35989C154.222 9.24529 154.105 9.15324 153.973 9.09087C153.84 9.02849 153.695 8.99746 153.548 9.00016H60.1716C60.025 8.99746 59.8797 9.02849 59.747 9.09087C59.6143 9.15324 59.4977 9.24529 59.4062 9.35989L1.20281 82.3734C1.11366 82.4857 1.05087 82.6165 1.01907 82.7563C0.987279 82.896 0.987295 83.0412 1.01912 83.1809L21.7992 174.227C21.8309 174.367 21.8938 174.499 21.9832 174.611C22.0727 174.724 22.1864 174.815 22.3159 174.877L106.454 215.401C106.584 215.463 106.726 215.495 106.869 215.495C107.013 215.495 107.155 215.463 107.285 215.401L191.427 174.881C191.556 174.819 191.67 174.728 191.759 174.615C191.849 174.502 191.912 174.371 191.943 174.231L212.724 83.1847C212.756 83.0444 212.756 82.8986 212.725 82.7581C212.693 82.6176 212.63 82.4861 212.54 82.3734Z" fill="black"/>
<mask id="mask0_2_3" style="mask-type:alpha" maskUnits="userSpaceOnUse" x="3" y="11" width="208" height="203">
<path d="M106.872 213.483L190.017 173.382L210.552 83.276L153.014 11.0165H60.7294L3.19096 83.276L23.7262 173.382L106.872 213.483Z" fill="white"/>
</mask>
<g mask="url(#mask0_2_3)">
<path d="M17.4265 90.6626L11.9999 89.2008L17.4265 87.7389L18.8884 82.3123L20.3503 87.7389L25.7768 89.2008L20.3503 90.6626L18.8884 96.0892L17.4265 90.6626Z" fill="white"/>
<path d="M66.1507 27.6833L60.7241 26.2252L66.1507 24.7633L67.6125 19.3329L69.0744 24.7633L74.501 26.2252L69.0744 27.6833L67.6125 33.1136L66.1507 27.6833Z" fill="white"/>
<path d="M193.3 84.4171L187.873 82.9553L193.3 81.4972L194.761 76.0668L196.223 81.4972L201.65 82.9553L196.223 84.4171L194.761 89.8437L193.3 84.4171Z" fill="white"/>
<path d="M189.186 119.72L183.759 118.258L189.186 116.8L190.648 111.37L192.109 116.8L197.536 118.258L192.109 119.72L190.648 125.147L189.186 119.72Z" fill="white"/>
<path d="M131.017 28.353L125.59 26.8949L131.017 25.433L132.479 20.0027L133.94 25.433L139.367 26.8949L133.94 28.353L132.479 33.7795L131.017 28.353Z" fill="white"/>
<path d="M27.4989 116.372L22.0724 114.91L27.4989 113.452L28.9608 108.021L30.4227 113.452L35.8492 114.91L30.4227 116.372L28.9608 121.798L27.4989 116.372Z" fill="white"/>
<path d="M90.2601 30.0751L84.8336 28.617L90.2601 27.1551L91.722 21.7286L93.1839 27.1551L98.6104 28.617L93.1839 30.0751L91.722 35.5016L90.2601 30.0751Z" fill="white"/>
<path d="M80.624 22.781C81.5751 22.781 82.3461 22.01 82.3461 21.0589C82.3461 20.1078 81.5751 19.3368 80.624 19.3368C79.6729 19.3368 78.9019 20.1078 78.9019 21.0589C78.9019 22.01 79.6729 22.781 80.624 22.781Z" fill="white"/>
<path d="M85.025 58.1799C85.9761 58.1799 86.7471 57.4088 86.7471 56.4577C86.7471 55.5067 85.9761 54.7356 85.025 54.7356C84.0739 54.7356 83.3029 55.5067 83.3029 56.4577C83.3029 57.4088 84.0739 58.1799 85.025 58.1799Z" fill="white"/>
<path d="M120.998 21.0589C121.949 21.0589 122.72 20.2879 122.72 19.3368C122.72 18.3857 121.949 17.6147 120.998 17.6147C120.047 17.6147 119.276 18.3857 119.276 19.3368C119.276 20.2879 120.047 21.0589 120.998 21.0589Z" fill="white"/>
<path d="M114.779 37.8973C115.73 37.8973 116.501 37.1262 116.501 36.1751C116.501 35.2241 115.73 34.453 114.779 34.453C113.828 34.453 113.057 35.2241 113.057 36.1751C113.057 37.1262 113.828 37.8973 114.779 37.8973Z" fill="white"/>
<path d="M19.4892 108.599C20.4403 108.599 21.2113 107.828 21.2113 106.877C21.2113 105.926 20.4403 105.155 19.4892 105.155C18.5381 105.155 17.7671 105.926 17.7671 106.877C17.7671 107.828 18.5381 108.599 19.4892 108.599Z" fill="white"/>
<path d="M188.16 131.848C189.111 131.848 189.882 131.077 189.882 130.126C189.882 129.175 189.111 128.404 188.16 128.404C187.209 128.404 186.438 129.175 186.438 130.126C186.438 131.077 187.209 131.848 188.16 131.848Z" fill="white"/>
<path d="M99.1845 50.9087C100.136 50.9087 100.907 50.1377 100.907 49.1866C100.907 48.2355 100.136 47.4645 99.1845 47.4645C98.2334 47.4645 97.4624 48.2355 97.4624 49.1866C97.4624 50.1377 98.2334 50.9087 99.1845 50.9087Z" fill="white"/>
<path d="M31.1984 96.8639C31.696 96.0533 31.4422 94.9929 30.6316 94.4953C29.821 93.9978 28.7605 94.2516 28.263 95.0622C27.7655 95.8728 28.0193 96.9333 28.8299 97.4308C29.6405 97.9283 30.7009 97.6745 31.1984 96.8639Z" fill="white"/>
<path d="M148.934 26.6079C149.885 26.6079 150.656 25.8369 150.656 24.8858C150.656 23.9347 149.885 23.1637 148.934 23.1637C147.983 23.1637 147.212 23.9347 147.212 24.8858C147.212 25.8369 147.983 26.6079 148.934 26.6079Z" fill="white"/>
<path d="M26.6646 135.101C27.6157 135.101 28.3867 134.33 28.3867 133.379C28.3867 132.427 27.6157 131.656 26.6646 131.656C25.7135 131.656 24.9425 132.427 24.9425 133.379C24.9425 134.33 25.7135 135.101 26.6646 135.101Z" fill="white"/>
<path d="M113.153 48.3256C113.628 48.3256 114.014 47.9401 114.014 47.4645C114.014 46.989 113.628 46.6035 113.153 46.6035C112.677 46.6035 112.292 46.989 112.292 47.4645C112.292 47.9401 112.677 48.3256 113.153 48.3256Z" fill="white"/>
<path d="M23.3161 125.725C23.7916 125.725 24.1772 125.339 24.1772 124.864C24.1772 124.388 23.7916 124.003 23.3161 124.003C22.8406 124.003 22.455 124.388 22.455 124.864C22.455 125.339 22.8406 125.725 23.3161 125.725Z" fill="white"/>
<path d="M36.9016 102.476C37.3772 102.476 37.7627 102.091 37.7627 101.615C37.7627 101.14 37.3772 100.754 36.9016 100.754C36.4261 100.754 36.0406 101.14 36.0406 101.615C36.0406 102.091 36.4261 102.476 36.9016 102.476Z" fill="white"/>
<path d="M21.0199 77.0274C21.4955 77.0274 21.881 76.6419 21.881 76.1663C21.881 75.6908 21.4955 75.3053 21.0199 75.3053C20.5444 75.3053 20.1589 75.6908 20.1589 76.1663C20.1589 76.6419 20.5444 77.0274 21.0199 77.0274Z" fill="white"/>
<path d="M56.8972 34.3574C57.3727 34.3574 57.7582 33.9719 57.7582 33.4963C57.7582 33.0208 57.3727 32.6353 56.8972 32.6353C56.4216 32.6353 56.0361 33.0208 56.0361 33.4963C56.0361 33.9719 56.4216 34.3574 56.8972 34.3574Z" fill="white"/>
<path d="M92.6788 57.2231C93.1543 57.2231 93.5398 56.8376 93.5398 56.3621C93.5398 55.8865 93.1543 55.501 92.6788 55.501C92.2032 55.501 91.8177 55.8865 91.8177 56.3621C91.8177 56.8376 92.2032 57.2231 92.6788 57.2231Z" fill="white"/>
<path d="M73.5442 35.4098C74.0198 35.4098 74.4053 35.0243 74.4053 34.5487C74.4053 34.0732 74.0198 33.6877 73.5442 33.6877C73.0687 33.6877 72.6832 34.0732 72.6832 34.5487C72.6832 35.0243 73.0687 35.4098 73.5442 35.4098Z" fill="white"/>
<path d="M104.351 55.4054C104.826 55.4054 105.212 55.0199 105.212 54.5443C105.212 54.0688 104.826 53.6833 104.351 53.6833C103.875 53.6833 103.49 54.0688 103.49 54.5443C103.49 55.0199 103.875 55.4054 104.351 55.4054Z" fill="white"/>
<path d="M110.792 43.6032C111.267 43.6032 111.653 43.2177 111.653 42.7421C111.653 42.2666 111.267 41.8811 110.792 41.8811C110.316 41.8811 109.93 42.2666 109.93 42.7421C109.93 43.2177 110.316 43.6032 110.792 43.6032Z" fill="white"/>
<path d="M104.159 34.7401C104.635 34.7401 105.021 34.3546 105.021 33.879C105.021 33.4035 104.635 33.018 104.159 33.018C103.684 33.018 103.298 33.4035 103.298 33.879C103.298 34.3546 103.684 34.7401 104.159 34.7401Z" fill="white"/>
<path d="M108.304 24.7251C108.78 24.7251 109.165 24.3395 109.165 23.864C109.165 23.3885 108.78 23.0029 108.304 23.0029C107.828 23.0029 107.443 23.3885 107.443 23.864C107.443 24.3395 107.828 24.7251 108.304 24.7251Z" fill="white"/>
<path d="M97.5236 19.6238C97.9992 19.6238 98.3847 19.2383 98.3847 18.7627C98.3847 18.2872 97.9992 17.9017 97.5236 17.9017C97.0481 17.9017 96.6626 18.2872 96.6626 18.7627C96.6626 19.2383 97.0481 19.6238 97.5236 19.6238Z" fill="white"/>
<path d="M142.046 21.1545C142.521 21.1545 142.907 20.769 142.907 20.2935C142.907 19.8179 142.521 19.4324 142.046 19.4324C141.57 19.4324 141.185 19.8179 141.185 20.2935C141.185 20.769 141.57 21.1545 142.046 21.1545Z" fill="white"/>
<path d="M126.482 38.6933C126.957 38.6933 127.343 38.3077 127.343 37.8322C127.343 37.3567 126.957 36.9711 126.482 36.9711C126.006 36.9711 125.621 37.3567 125.621 37.8322C125.621 38.3077 126.006 38.6933 126.482 38.6933Z" fill="white"/>
<path d="M193.326 97.31C193.802 97.31 194.187 96.9245 194.187 96.4489C194.187 95.9734 193.802 95.5879 193.326 95.5879C192.851 95.5879 192.465 95.9734 192.465 96.4489C192.465 96.9245 192.851 97.31 193.326 97.31Z" fill="white"/>
<path d="M189.752 139.532C190.228 139.532 190.613 139.147 190.613 138.671C190.613 138.196 190.228 137.81 189.752 137.81C189.277 137.81 188.891 138.196 188.891 138.671C188.891 139.147 189.277 139.532 189.752 139.532Z" fill="white"/>
<path d="M196.897 109.939C197.372 109.939 197.758 109.553 197.758 109.078C197.758 108.602 197.372 108.217 196.897 108.217C196.421 108.217 196.036 108.602 196.036 109.078C196.036 109.553 196.421 109.939 196.897 109.939Z" fill="white"/>
<path d="M199.641 97.7883C200.592 97.7883 201.363 97.0173 201.363 96.0662C201.363 95.1151 200.592 94.3441 199.641 94.3441C198.69 94.3441 197.919 95.1151 197.919 96.0662C197.919 97.0173 198.69 97.7883 199.641 97.7883Z" fill="white"/>
<path d="M191.222 106.399C192.173 106.399 192.944 105.628 192.944 104.677C192.944 103.726 192.173 102.955 191.222 102.955C190.271 102.955 189.5 103.726 189.5 104.677C189.5 105.628 190.271 106.399 191.222 106.399Z" fill="white"/>
</g>
</svg>
